<svg width="20" height="20" viewBox="0 0 20 20" fill="none" xmlns="http://www.w3.org/2000/svg">
<path fill-rule="evenodd" clip-rule="evenodd" d="M1.31176 5.66945C2.73796 2.24481 6.07961 0.0101595 9.78934 0.000250922C13.7875 -0.0208034 17.3426 2.54018 18.589 6.33922C19.8353 10.1383 18.4881 14.3075 15.2544 16.6589C12.0207 19.0104 7.63925 19.0069 4.40934 16.6503L1.52934 19.5303C1.23652 19.8227 0.762158 19.8227 0.46934 19.5303C0.176887 19.2374 0.176887 18.7631 0.46934 18.4703L3.25934 15.6803C0.653243 13.0401 -0.114444 9.09409 1.31176 5.66945ZM2.64891 12.1692C3.84638 15.0549 6.66508 16.9343 9.78934 16.9303V16.8903C14.0296 16.8848 17.4719 13.4605 17.4993 9.22025C17.5034 6.09599 15.624 3.27729 12.7383 2.07982C9.85261 0.882348 6.52967 1.5422 4.32048 3.75139C2.11129 5.96058 1.45144 9.28352 2.64891 12.1692Z" fill="#292D32"/>
</svg>
