<svg width="194" height="183" viewBox="0 0 194 183" fill="none" xmlns="http://www.w3.org/2000/svg">
<path d="M175.827 28.1928L187.769 24.9398L188.288 27.1084L187.769 28.7349L187.25 30.3614L186.212 32.5301L184.654 34.6988L183.096 36.3253L181.538 37.9518L179.981 39.5783L178.942 40.6627L177.904 41.747L177.385 42.8313V43.9157L177.904 44.4578L178.423 45H179.462H181.019L182.058 43.9157L184.135 41.747L186.212 39.5783L188.808 36.3253L190.885 33.6145L192.442 30.3614L193.481 27.6506L194 24.3976V21.6867L193.481 18.9759L192.962 16.8072L188.288 3.79518L187.769 2.71084L187.25 1.62651L186.212 0.542169L185.173 0L168.558 4.87952L167.519 5.42169L167 6.50602V7.59036L171.673 25.4819L172.192 26.5663L172.712 27.1084L173.231 27.6506L174.788 28.1928H175.827Z" fill="#FF2E4D"/>
<path d="M143.005 183H18.5C7.5 183 -7.32517 176.295 13.7402 159.053L49.647 127.922L1.77122 44.1086C-1.42049 35.3281 -2.53758 18.246 18.5278 20.1618L141.5 20.1618C149.5 20.1617 162.66 22.0898 155 35.5L114.277 77.6361L157.367 159.053C162.156 167.035 165.987 183 143.005 183Z" fill="#FF2E4D"/>
</svg>
